# xmcd CD database file
#
# Track frame offsets:
#	150
#	20924
#	40020
#	63294
#
# Disc length: 1153 seconds
#
# Revision: 1
# Processed by: cddbd v1.4PL0 Copyright (c) Steve Scherf et al.
# Submitted via: CDex 1.50
#
DISCID=2d047f04
DTITLE=RED HOUSE - MIXES
DYEAR=2000
DGENRE=Blues
TTITLE0=Running On Back
TTITLE1=Hold On The Light (Radio Edit)
TTITLE2=Hold On (Mr. Delay Mix 2000)
TTITLE3=Hold On (Mr. Instrumental Radiant Mix)
EXTD=YEAR: 2000
EXTT0=
EXTT1=
EXTT2=
EXTT3=
PLAYORDER=
